<svg width="506" height="524" xmlns="http://www.w3.org/2000/svg" xmlns:svg="http://www.w3.org/2000/svg">
 <g>
  <title>Layer 1</title>
  <path stroke="null" d="m247.28065,21.00001c-139.53892,0 -246.28065,108.56608 -246.28065,251.56811c0,114.33977 70.22218,212.18327 170.5252,246.61923c12.87742,2.37134 17.40464,-5.7737 17.40464,-12.4753c0,-6.3923 -0.30182,-41.65308 -0.30182,-63.30443c0,0 -70.42339,15.46525 -85.2123,-30.7243c0,0 -11.46896,-30.00259 -27.96814,-37.73522c0,0 -23.03851,-16.18696 1.60967,-15.87766c0,0 25.05061,2.06204 38.83347,26.60023c22.03246,39.79725 58.95444,28.35296 73.34093,21.54825c14.38649,-6.80471 8.85323,-16.49627 16.09677,-23.30098c-56.23811,-6.3923 -112.97923,-26.18783 -112.97923,-125.37165c0,-28.35296 7.64597,-42.581 23.74274,-60.72689c-2.61573,-6.70161 -11.16714,-34.33286 2.61573,-70.00604c21.02641,-6.70161 69.41734,27.83745 69.41734,27.83745c20.12097,-5.7737 41.75101,-8.76364 63.17984,-8.76364s43.05887,2.98995 63.17984,8.76364c0,0 48.39093,-34.64217 69.41734,-27.83745c13.78286,35.77628 5.23146,63.30443 2.61573,70.00604c16.09677,18.249 25.95604,32.47703 25.95604,60.72689c0,99.49313 -59.25625,118.87624 -115.49436,125.37165c9.25564,8.14504 17.10283,12.166 17.10283,36.39489c0,34.74527 -0.30182,77.73868 -0.30182,86.19301c0,6.70161 4.62783,14.84664 17.40464,12.4753c100.60484,-34.22976 168.81492,-132.07326 168.81492,-246.41303c0,-143.00204 -113.18045,-251.56811 -252.71936,-251.56811l0,-0.00001z" id="svg_1" fill="black"/>
 </g>
</svg>